<svg width="994" height="500" viewBox="0 0 994 500" fill="none" xmlns="http://www.w3.org/2000/svg">
<path opacity="0.09" fill-rule="evenodd" clip-rule="evenodd" d="M306.516 37.7534C364.61 13.6898 426.727 0.886386 489.559 0.000688736C493.425 -0.0538014 496.559 3.08536 496.559 6.95136L496.559 241.255C496.559 245.121 493.424 248.245 489.56 248.354C459.338 249.206 429.506 255.571 401.537 267.156C371.412 279.635 344.039 297.925 320.982 320.982C297.925 344.039 279.635 371.412 267.156 401.537C255.571 429.506 249.206 459.338 248.354 489.56C248.245 493.424 245.121 496.559 241.255 496.559L6.95137 496.559C3.08537 496.559 -0.0537909 493.425 0.000698813 489.559C0.886389 426.727 13.6898 364.61 37.7534 306.516C62.7102 246.264 99.2901 191.519 145.404 145.404C191.519 99.2901 246.264 62.7103 306.516 37.7534ZM686.603 462.024C628.508 486.088 566.392 498.891 503.559 499.777C499.694 499.831 496.559 496.692 496.559 492.826V258.522C496.559 254.656 499.694 251.533 503.558 251.424C533.78 250.571 563.613 244.206 591.581 232.621C621.707 220.143 649.079 201.853 672.137 178.796C695.194 155.739 713.484 128.366 725.962 98.2402C737.547 70.2718 743.912 40.4392 744.764 10.2176C744.873 6.35318 747.997 3.21835 751.863 3.21835L986.167 3.21831C990.033 3.21831 993.172 6.35273 993.118 10.2183C992.232 73.051 979.429 135.167 955.365 193.262C930.408 253.513 893.828 308.259 847.714 354.373C801.6 400.487 746.854 437.067 686.603 462.024Z" fill="url(#paint0_linear_272_3)"/>
<path opacity="0.09" fill-rule="evenodd" clip-rule="evenodd" d="M306.516 37.7534C364.61 13.6898 426.727 0.886386 489.559 0.000688736C493.425 -0.0538014 496.559 3.08536 496.559 6.95136L496.559 241.255C496.559 245.121 493.424 248.245 489.56 248.354C459.338 249.206 429.506 255.571 401.537 267.156C371.412 279.635 344.039 297.925 320.982 320.982C297.925 344.039 279.635 371.412 267.156 401.537C255.571 429.506 249.206 459.338 248.354 489.56C248.245 493.424 245.121 496.559 241.255 496.559L6.95137 496.559C3.08537 496.559 -0.0537909 493.425 0.000698813 489.559C0.886389 426.727 13.6898 364.61 37.7534 306.516C62.7102 246.264 99.2901 191.519 145.404 145.404C191.519 99.2901 246.264 62.7103 306.516 37.7534ZM686.603 462.024C628.508 486.088 566.392 498.891 503.559 499.777C499.694 499.831 496.559 496.692 496.559 492.826V258.522C496.559 254.656 499.694 251.533 503.558 251.424C533.78 250.571 563.613 244.206 591.581 232.621C621.707 220.143 649.079 201.853 672.137 178.796C695.194 155.739 713.484 128.366 725.962 98.2402C737.547 70.2718 743.912 40.4392 744.764 10.2176C744.873 6.35318 747.997 3.21835 751.863 3.21835L986.167 3.21831C990.033 3.21831 993.172 6.35273 993.118 10.2183C992.232 73.051 979.429 135.167 955.365 193.262C930.408 253.513 893.828 308.259 847.714 354.373C801.6 400.487 746.854 437.067 686.603 462.024Z" fill="url(#paint1_linear_272_3)"/>
<defs>
<linearGradient id="paint0_linear_272_3" x1="-0.503503" y1="-0.503927" x2="993.985" y2="499.559" gradientUnits="userSpaceOnUse">
<stop stop-color="white"/>
<stop offset="1" stop-color="#2DB3FF"/>
</linearGradient>
<linearGradient id="paint1_linear_272_3" x1="-0.503503" y1="-0.503927" x2="993.985" y2="499.559" gradientUnits="userSpaceOnUse">
<stop stop-color="white"/>
<stop offset="1" stop-color="#2DB3FF"/>
</linearGradient>
</defs>
</svg>
