<svg width="325" height="164" viewBox="0 0 325 164" fill="none" xmlns="http://www.w3.org/2000/svg">
<path fill-rule="evenodd" clip-rule="evenodd" d="M100.055 12.2109C117.59 4.94763 136.246 0.823039 155.172 0.00632419C159.034 -0.160349 162.17 2.98942 162.17 6.85541V74.0127C162.17 77.8787 159.03 80.9814 155.179 81.3144C146.917 82.0288 138.799 84.0065 131.112 87.1905C121.266 91.269 112.319 97.247 104.783 104.783C97.247 112.319 91.269 121.266 87.1905 131.112C84.0065 138.799 82.0288 146.917 81.3144 155.179C80.9814 159.03 77.8787 162.17 74.0127 162.17H6.85541C2.98941 162.17 -0.160348 159.034 0.00632416 155.172C0.823036 136.246 4.94763 117.59 12.2109 100.055C20.3679 80.362 32.3239 62.4686 47.3963 47.3963C62.4686 32.324 80.362 20.3679 100.055 12.2109ZM224.285 150.882C206.75 158.146 188.094 162.27 169.168 163.087C165.306 163.254 162.17 160.104 162.17 156.238V89.0805C162.17 85.2145 165.31 82.1119 169.161 81.7788C177.423 81.0645 185.541 79.0868 193.228 75.9028C203.074 71.8242 212.021 65.8462 219.557 58.3101C227.093 50.7739 233.071 41.8272 237.15 31.9808C240.334 24.294 242.311 16.1763 243.026 7.91456C243.359 4.06294 246.461 0.92319 250.327 0.923189L317.485 0.923179C321.351 0.923178 324.5 4.05877 324.334 7.92117C323.517 26.8473 319.392 45.5033 312.129 63.0383C303.972 82.7312 292.016 100.625 276.944 115.697C261.871 130.769 243.978 142.725 224.285 150.882Z" fill="url(#paint0_linear_215_15)"/>
<defs>
<linearGradient id="paint0_linear_215_15" x1="-0.164438" y1="-0.164447" x2="324.52" y2="163.226" gradientUnits="userSpaceOnUse">
<stop stop-color="white"/>
<stop offset="1" stop-color="#2DB3FF"/>
</linearGradient>
</defs>
</svg>
